<svg width="252" height="50" viewBox="0 0 252 50" fill="none" xmlns="http://www.w3.org/2000/svg">
<path d="M25 0C11.2348 0 0 11.2348 0 25C0 38.7652 11.2348 50 25 50C38.7652 50 50 38.7652 50 25C50 11.2348 38.7652 0 25 0ZM6.98381 25C6.98381 19.8381 9.21052 15.081 12.753 11.8421C14.17 10.5263 16.5992 10.9312 17.6113 12.6518L23.8866 23.4818C24.4939 24.4939 24.4939 25.7085 23.8866 26.7206L17.6113 37.5506C16.5992 39.3725 14.17 39.6761 12.6518 38.2591C9.21053 34.8178 6.98381 30.162 6.98381 25ZM32.3887 37.3482L26.1134 26.5182C25.5061 25.5061 25.5061 24.2915 26.1134 23.2794L32.3887 12.4494C33.4008 10.7287 35.7287 10.3239 37.247 11.6397C40.7895 14.8785 43.0162 19.6356 43.0162 24.7976C43.0162 29.9595 40.7895 34.7166 37.247 37.9555C35.7287 39.5749 33.4008 39.17 32.3887 37.3482Z" fill="#6E54FF"/>
<path d="M99.808 9.064V41.848C99.808 42.168 99.696 42.44 99.472 42.664C99.248 42.888 98.976 43 98.656 43H91.408C91.088 43 90.816 42.888 90.592 42.664C90.368 42.44 90.256 42.168 90.256 41.848V26.392C90.256 26.072 90.112 25.896 89.824 25.864C89.536 25.832 89.296 25.944 89.104 26.2L81.04 39.208C80.88 39.464 80.624 39.592 80.272 39.592C79.92 39.592 79.648 39.464 79.456 39.208L71.392 26.2C71.232 25.944 71.008 25.832 70.72 25.864C70.432 25.896 70.288 26.072 70.288 26.392V41.848C70.288 42.168 70.176 42.44 69.952 42.664C69.728 42.888 69.456 43 69.136 43H61.888C61.568 43 61.296 42.888 61.072 42.664C60.848 42.44 60.736 42.168 60.736 41.848V9.064C60.736 8.744 60.848 8.472 61.072 8.248C61.296 8.024 61.568 7.912 61.888 7.912H68.608C68.928 7.912 69.264 8.008 69.616 8.2C69.968 8.392 70.224 8.616 70.384 8.872L79.6 22.408C79.792 22.664 80.016 22.792 80.272 22.792C80.528 22.792 80.736 22.664 80.896 22.408L90.112 8.872C90.304 8.616 90.576 8.392 90.928 8.2C91.28 8.008 91.616 7.912 91.936 7.912H98.656C98.976 7.912 99.248 8.024 99.472 8.248C99.696 8.472 99.808 8.744 99.808 9.064ZM103.962 25.432C103.962 22.936 104.442 20.584 105.402 18.376C106.362 16.168 107.658 14.248 109.29 12.616C110.922 10.952 112.842 9.64 115.05 8.68C117.258 7.72 119.61 7.24 122.106 7.24C124.602 7.24 126.954 7.72 129.162 8.68C131.37 9.64 133.29 10.952 134.922 12.616C136.586 14.248 137.898 16.168 138.858 18.376C139.818 20.584 140.298 22.936 140.298 25.432C140.298 27.928 139.818 30.28 138.858 32.488C137.898 34.696 136.586 36.632 134.922 38.296C133.29 39.928 131.37 41.224 129.162 42.184C126.954 43.144 124.602 43.624 122.106 43.624C119.61 43.624 117.258 43.144 115.05 42.184C112.842 41.224 110.922 39.928 109.29 38.296C107.658 36.632 106.362 34.696 105.402 32.488C104.442 30.28 103.962 27.928 103.962 25.432ZM113.466 25.432C113.466 26.648 113.69 27.8 114.138 28.888C114.586 29.976 115.194 30.936 115.962 31.768C116.762 32.6 117.69 33.272 118.746 33.784C119.802 34.264 120.922 34.504 122.106 34.504C123.29 34.504 124.41 34.264 125.466 33.784C126.522 33.272 127.45 32.6 128.25 31.768C129.05 30.936 129.674 29.976 130.122 28.888C130.57 27.8 130.794 26.648 130.794 25.432C130.794 24.248 130.57 23.112 130.122 22.024C129.674 20.904 129.05 19.944 128.25 19.144C127.45 18.312 126.522 17.656 125.466 17.176C124.41 16.664 123.29 16.408 122.106 16.408C120.922 16.408 119.802 16.664 118.746 17.176C117.69 17.656 116.762 18.312 115.962 19.144C115.194 19.944 114.586 20.904 114.138 22.024C113.69 23.112 113.466 24.248 113.466 25.432ZM145.344 41.848V9.016C145.344 8.696 145.456 8.424 145.68 8.2C145.904 7.976 146.176 7.864 146.496 7.864H159.6C164.624 7.864 168.736 9.336 171.936 12.28C173.664 13.88 174.976 15.784 175.872 17.992C176.768 20.2 177.216 22.68 177.216 25.432C177.216 28.184 176.768 30.68 175.872 32.92C174.976 35.128 173.664 37.032 171.936 38.632C170.336 40.072 168.496 41.16 166.416 41.896C164.368 42.632 162.096 43 159.6 43H146.496C146.176 43 145.904 42.888 145.68 42.664C145.456 42.44 145.344 42.168 145.344 41.848ZM156 34.168H159.6C160.496 34.168 161.424 34.056 162.384 33.832C163.344 33.608 164.208 33.192 164.976 32.584C165.744 31.944 166.368 31.064 166.848 29.944C167.36 28.792 167.616 27.304 167.616 25.48C167.616 23.656 167.36 22.184 166.848 21.064C166.368 19.912 165.728 19.032 164.928 18.424C164.16 17.784 163.296 17.352 162.336 17.128C161.408 16.904 160.496 16.792 159.6 16.792H156C155.68 16.792 155.408 16.904 155.184 17.128C154.96 17.352 154.848 17.624 154.848 17.944V33.016C154.848 33.336 154.96 33.608 155.184 33.832C155.408 34.056 155.68 34.168 156 34.168ZM189.601 8.968C189.729 8.68 189.937 8.44 190.225 8.248C190.545 8.024 190.881 7.912 191.233 7.912H197.953C198.273 7.912 198.577 8.024 198.865 8.248C199.185 8.44 199.409 8.68 199.537 8.968L213.553 41.608C213.681 41.896 213.649 42.2 213.457 42.52C213.297 42.84 212.961 43 212.449 43H204.241C203.889 43 203.553 42.904 203.233 42.712C202.945 42.488 202.721 42.232 202.561 41.944L201.265 39.064C201.105 38.776 200.865 38.536 200.545 38.344C200.257 38.12 199.953 38.008 199.633 38.008H189.505C189.153 38.008 188.817 38.12 188.497 38.344C188.209 38.536 188.001 38.776 187.873 39.064L186.529 41.944C186.401 42.232 186.177 42.488 185.857 42.712C185.569 42.904 185.265 43 184.945 43H176.689C176.529 43 176.369 42.968 176.209 42.904C176.017 42.84 175.873 42.744 175.777 42.616C175.649 42.488 175.569 42.328 175.537 42.136C175.505 41.944 175.553 41.72 175.681 41.464L189.601 8.968ZM192.433 29.848H196.705C197.025 29.848 197.249 29.752 197.377 29.56C197.537 29.336 197.537 29.08 197.377 28.792C197.057 27.992 196.673 27.064 196.225 26.008C195.777 24.92 195.361 23.912 194.977 22.984C194.849 22.696 194.705 22.552 194.545 22.552C194.385 22.552 194.241 22.696 194.113 22.984L191.713 28.792C191.585 29.08 191.585 29.336 191.713 29.56C191.841 29.752 192.081 29.848 192.433 29.848ZM213.134 25.432C213.134 22.936 213.614 20.584 214.574 18.376C215.534 16.168 216.83 14.248 218.462 12.616C220.094 10.952 222.014 9.64 224.222 8.68C226.43 7.72 228.782 7.24 231.278 7.24C233.774 7.24 236.126 7.72 238.334 8.68C240.542 9.64 242.462 10.952 244.094 12.616C245.758 14.248 247.07 16.168 248.03 18.376C248.99 20.584 249.47 22.936 249.47 25.432C249.47 27.928 248.99 30.28 248.03 32.488C247.07 34.696 245.758 36.632 244.094 38.296C242.462 39.928 240.542 41.224 238.334 42.184C236.126 43.144 233.774 43.624 231.278 43.624C228.782 43.624 226.43 43.144 224.222 42.184C222.014 41.224 220.094 39.928 218.462 38.296C216.83 36.632 215.534 34.696 214.574 32.488C213.614 30.28 213.134 27.928 213.134 25.432ZM222.638 25.432C222.638 26.648 222.862 27.8 223.31 28.888C223.758 29.976 224.366 30.936 225.134 31.768C225.934 32.6 226.862 33.272 227.918 33.784C228.974 34.264 230.094 34.504 231.278 34.504C232.462 34.504 233.582 34.264 234.638 33.784C235.694 33.272 236.622 32.6 237.422 31.768C238.222 30.936 238.846 29.976 239.294 28.888C239.742 27.8 239.966 26.648 239.966 25.432C239.966 24.248 239.742 23.112 239.294 22.024C238.846 20.904 238.222 19.944 237.422 19.144C236.622 18.312 235.694 17.656 234.638 17.176C233.582 16.664 232.462 16.408 231.278 16.408C230.094 16.408 228.974 16.664 227.918 17.176C226.862 17.656 225.934 18.312 225.134 19.144C224.366 19.944 223.758 20.904 223.31 22.024C222.862 23.112 222.638 24.248 222.638 25.432Z" fill="black"/>
</svg>
